<mxfile host="Electron" modified="2024-03-22T14:03:41.875Z" agent="Mozilla/5.0 (Macintosh; Intel Mac OS X 10_15_7) AppleWebKit/537.36 (KHTML, like Gecko) draw.io/24.0.4 Chrome/120.0.6099.109 Electron/28.1.0 Safari/537.36" etag="q2dgWJ-LjmpRJqxXRxoX" version="24.0.4" type="device" pages="2">
  <diagram id="yzBdsYBkX4IGCt9tjfFi" name="Page-2">
    <mxGraphModel dx="1114" dy="846" grid="1" gridSize="10" guides="1" tooltips="1" connect="1" arrows="1" fold="1" page="1" pageScale="1" pageWidth="850" pageHeight="1100" math="0" shadow="0">
      <root>
        <mxCell id="0" />
        <mxCell id="1" parent="0" />
        <mxCell id="5kGYfxahbjPtnFIwZFcB-64" value="" style="rounded=1;whiteSpace=wrap;html=1;dashed=1;fillColor=#f5f5f5;fontColor=#333333;strokeColor=#666666;" parent="1" vertex="1">
          <mxGeometry x="620" y="240" width="120" height="350" as="geometry" />
        </mxCell>
        <mxCell id="5kGYfxahbjPtnFIwZFcB-47" value="" style="rounded=1;whiteSpace=wrap;html=1;dashed=1;fillColor=#f5f5f5;fontColor=#333333;strokeColor=#666666;" parent="1" vertex="1">
          <mxGeometry x="230" y="240" width="220" height="430" as="geometry" />
        </mxCell>
        <mxCell id="5kGYfxahbjPtnFIwZFcB-25" value="" style="rounded=0;whiteSpace=wrap;html=1;" parent="1" vertex="1">
          <mxGeometry x="490" y="330" width="120" height="235" as="geometry" />
        </mxCell>
        <mxCell id="5kGYfxahbjPtnFIwZFcB-24" value="" style="rounded=0;whiteSpace=wrap;html=1;" parent="1" vertex="1">
          <mxGeometry x="480" y="320" width="120" height="235" as="geometry" />
        </mxCell>
        <mxCell id="5kGYfxahbjPtnFIwZFcB-5" style="edgeStyle=orthogonalEdgeStyle;rounded=0;orthogonalLoop=1;jettySize=auto;html=1;exitX=0.5;exitY=1;exitDx=0;exitDy=0;entryX=0;entryY=0.5;entryDx=0;entryDy=0;endArrow=none;endFill=0;" parent="1" source="5kGYfxahbjPtnFIwZFcB-1" target="5kGYfxahbjPtnFIwZFcB-4" edge="1">
          <mxGeometry relative="1" as="geometry" />
        </mxCell>
        <mxCell id="5kGYfxahbjPtnFIwZFcB-6" value="SBA" style="edgeLabel;html=1;align=center;verticalAlign=middle;resizable=0;points=[];" parent="5kGYfxahbjPtnFIwZFcB-5" vertex="1" connectable="0">
          <mxGeometry x="-0.3826" y="1" relative="1" as="geometry">
            <mxPoint as="offset" />
          </mxGeometry>
        </mxCell>
        <mxCell id="5kGYfxahbjPtnFIwZFcB-1" value="Debug &lt;br&gt;Module" style="rounded=0;whiteSpace=wrap;html=1;" parent="1" vertex="1">
          <mxGeometry x="130" y="380" width="80" height="130" as="geometry" />
        </mxCell>
        <mxCell id="5kGYfxahbjPtnFIwZFcB-2" value="" style="rounded=0;whiteSpace=wrap;html=1;" parent="1" vertex="1">
          <mxGeometry x="470" y="310" width="120" height="235" as="geometry" />
        </mxCell>
        <mxCell id="5kGYfxahbjPtnFIwZFcB-8" style="edgeStyle=orthogonalEdgeStyle;rounded=0;orthogonalLoop=1;jettySize=auto;html=1;exitX=1;exitY=0.5;exitDx=0;exitDy=0;entryX=0;entryY=0.5;entryDx=0;entryDy=0;endArrow=none;endFill=0;" parent="1" source="5kGYfxahbjPtnFIwZFcB-4" target="5kGYfxahbjPtnFIwZFcB-7" edge="1">
          <mxGeometry relative="1" as="geometry" />
        </mxCell>
        <mxCell id="5kGYfxahbjPtnFIwZFcB-4" value="IOPMP" style="rounded=0;whiteSpace=wrap;html=1;" parent="1" vertex="1">
          <mxGeometry x="305" y="580" width="120" height="60" as="geometry" />
        </mxCell>
        <mxCell id="5kGYfxahbjPtnFIwZFcB-9" style="edgeStyle=orthogonalEdgeStyle;rounded=0;orthogonalLoop=1;jettySize=auto;html=1;exitX=1;exitY=0.5;exitDx=0;exitDy=0;" parent="1" source="5kGYfxahbjPtnFIwZFcB-7" edge="1">
          <mxGeometry relative="1" as="geometry">
            <mxPoint x="600" y="620" as="targetPoint" />
          </mxGeometry>
        </mxCell>
        <mxCell id="5kGYfxahbjPtnFIwZFcB-48" style="edgeStyle=orthogonalEdgeStyle;rounded=0;orthogonalLoop=1;jettySize=auto;html=1;exitX=1;exitY=0.5;exitDx=0;exitDy=0;" parent="1" source="5kGYfxahbjPtnFIwZFcB-7" edge="1">
          <mxGeometry relative="1" as="geometry">
            <mxPoint x="650" y="610" as="targetPoint" />
          </mxGeometry>
        </mxCell>
        <mxCell id="5kGYfxahbjPtnFIwZFcB-7" value="System Bus" style="rounded=0;whiteSpace=wrap;html=1;" parent="1" vertex="1">
          <mxGeometry x="482.5" y="580" width="120" height="60" as="geometry" />
        </mxCell>
        <mxCell id="5kGYfxahbjPtnFIwZFcB-15" style="edgeStyle=orthogonalEdgeStyle;rounded=0;orthogonalLoop=1;jettySize=auto;html=1;exitX=0;exitY=0.75;exitDx=0;exitDy=0;exitPerimeter=0;endArrow=none;endFill=0;" parent="1" source="5kGYfxahbjPtnFIwZFcB-11" target="5kGYfxahbjPtnFIwZFcB-16" edge="1">
          <mxGeometry relative="1" as="geometry">
            <mxPoint x="280" y="430" as="targetPoint" />
            <Array as="points">
              <mxPoint x="250" y="373" />
              <mxPoint x="250" y="330" />
            </Array>
          </mxGeometry>
        </mxCell>
        <mxCell id="5kGYfxahbjPtnFIwZFcB-11" value="" style="verticalLabelPosition=bottom;shadow=0;dashed=0;align=center;html=1;verticalAlign=top;shape=mxgraph.electrical.logic_gates.logic_gate;operation=or;" parent="1" vertex="1">
          <mxGeometry x="305" y="350" width="50" height="30" as="geometry" />
        </mxCell>
        <mxCell id="5kGYfxahbjPtnFIwZFcB-12" value="sdbgen" style="rounded=0;whiteSpace=wrap;html=1;" parent="1" vertex="1">
          <mxGeometry x="482.5" y="369" width="95" height="20" as="geometry" />
        </mxCell>
        <mxCell id="5kGYfxahbjPtnFIwZFcB-16" value="" style="rounded=0;whiteSpace=wrap;html=1;" parent="1" vertex="1">
          <mxGeometry x="130" y="300" width="80" height="60" as="geometry" />
        </mxCell>
        <mxCell id="5kGYfxahbjPtnFIwZFcB-28" style="edgeStyle=orthogonalEdgeStyle;rounded=0;orthogonalLoop=1;jettySize=auto;html=1;exitX=0.5;exitY=1;exitDx=0;exitDy=0;endArrow=none;endFill=0;entryX=0;entryY=0.75;entryDx=0;entryDy=0;entryPerimeter=0;" parent="1" source="5kGYfxahbjPtnFIwZFcB-18" target="5kGYfxahbjPtnFIwZFcB-19" edge="1">
          <mxGeometry relative="1" as="geometry">
            <mxPoint x="280" y="470" as="targetPoint" />
            <Array as="points">
              <mxPoint x="530" y="530" />
              <mxPoint x="300" y="530" />
              <mxPoint x="300" y="478" />
            </Array>
          </mxGeometry>
        </mxCell>
        <mxCell id="5kGYfxahbjPtnFIwZFcB-31" value="match[i]/fire[i]" style="edgeLabel;html=1;align=center;verticalAlign=middle;resizable=0;points=[];" parent="5kGYfxahbjPtnFIwZFcB-28" vertex="1" connectable="0">
          <mxGeometry x="0.0643" y="-1" relative="1" as="geometry">
            <mxPoint x="29" y="-9" as="offset" />
          </mxGeometry>
        </mxCell>
        <mxCell id="5kGYfxahbjPtnFIwZFcB-18" value="Trigger" style="rounded=0;whiteSpace=wrap;html=1;" parent="1" vertex="1">
          <mxGeometry x="482.5" y="480" width="95" height="40" as="geometry" />
        </mxCell>
        <mxCell id="5kGYfxahbjPtnFIwZFcB-44" style="edgeStyle=orthogonalEdgeStyle;rounded=0;orthogonalLoop=1;jettySize=auto;html=1;exitX=0;exitY=0.25;exitDx=0;exitDy=0;exitPerimeter=0;entryX=0.5;entryY=0;entryDx=0;entryDy=0;startArrow=none;startFill=0;endArrow=none;endFill=0;" parent="1" source="5kGYfxahbjPtnFIwZFcB-19" target="5kGYfxahbjPtnFIwZFcB-35" edge="1">
          <mxGeometry relative="1" as="geometry">
            <Array as="points">
              <mxPoint x="330" y="458" />
              <mxPoint x="330" y="430" />
              <mxPoint x="435" y="430" />
              <mxPoint x="435" y="379" />
            </Array>
          </mxGeometry>
        </mxCell>
        <mxCell id="5kGYfxahbjPtnFIwZFcB-45" value="dbgen[i]" style="edgeLabel;html=1;align=center;verticalAlign=middle;resizable=0;points=[];" parent="5kGYfxahbjPtnFIwZFcB-44" vertex="1" connectable="0">
          <mxGeometry x="-0.0596" y="-1" relative="1" as="geometry">
            <mxPoint x="-14" y="-3" as="offset" />
          </mxGeometry>
        </mxCell>
        <mxCell id="5kGYfxahbjPtnFIwZFcB-19" value="" style="shape=or;whiteSpace=wrap;html=1;" parent="1" vertex="1">
          <mxGeometry x="350" y="448" width="30" height="40" as="geometry" />
        </mxCell>
        <mxCell id="5kGYfxahbjPtnFIwZFcB-21" style="edgeStyle=orthogonalEdgeStyle;rounded=0;orthogonalLoop=1;jettySize=auto;html=1;exitX=1;exitY=0.75;exitDx=0;exitDy=0;entryX=0;entryY=0.75;entryDx=0;entryDy=0;entryPerimeter=0;endArrow=none;endFill=0;" parent="1" source="5kGYfxahbjPtnFIwZFcB-1" target="5kGYfxahbjPtnFIwZFcB-19" edge="1">
          <mxGeometry relative="1" as="geometry" />
        </mxCell>
        <mxCell id="5kGYfxahbjPtnFIwZFcB-30" value="abstractcs[i]" style="edgeLabel;html=1;align=center;verticalAlign=middle;resizable=0;points=[];" parent="5kGYfxahbjPtnFIwZFcB-21" vertex="1" connectable="0">
          <mxGeometry x="-0.5445" relative="1" as="geometry">
            <mxPoint x="28" y="-9" as="offset" />
          </mxGeometry>
        </mxCell>
        <mxCell id="5kGYfxahbjPtnFIwZFcB-23" style="edgeStyle=orthogonalEdgeStyle;rounded=0;orthogonalLoop=1;jettySize=auto;html=1;exitX=1;exitY=0.5;exitDx=0;exitDy=0;exitPerimeter=0;endArrow=classic;endFill=1;" parent="1" source="5kGYfxahbjPtnFIwZFcB-19" edge="1">
          <mxGeometry relative="1" as="geometry">
            <mxPoint x="470" y="468" as="targetPoint" />
            <Array as="points">
              <mxPoint x="470" y="468" />
            </Array>
          </mxGeometry>
        </mxCell>
        <mxCell id="pdJH-xAAWzPBDE_H963x-1" value="debug op[i]" style="edgeLabel;html=1;align=center;verticalAlign=middle;resizable=0;points=[];" parent="5kGYfxahbjPtnFIwZFcB-23" vertex="1" connectable="0">
          <mxGeometry x="-0.1938" relative="1" as="geometry">
            <mxPoint x="4" y="-8" as="offset" />
          </mxGeometry>
        </mxCell>
        <mxCell id="5kGYfxahbjPtnFIwZFcB-46" style="edgeStyle=orthogonalEdgeStyle;rounded=0;orthogonalLoop=1;jettySize=auto;html=1;exitX=0;exitY=0.25;exitDx=0;exitDy=0;entryX=0;entryY=0.5;entryDx=0;entryDy=0;" parent="1" source="5kGYfxahbjPtnFIwZFcB-26" target="5kGYfxahbjPtnFIwZFcB-35" edge="1">
          <mxGeometry relative="1" as="geometry">
            <Array as="points">
              <mxPoint x="470" y="330" />
              <mxPoint x="387" y="330" />
            </Array>
          </mxGeometry>
        </mxCell>
        <mxCell id="5kGYfxahbjPtnFIwZFcB-49" value="privilege[i]" style="edgeLabel;html=1;align=center;verticalAlign=middle;resizable=0;points=[];" parent="5kGYfxahbjPtnFIwZFcB-46" vertex="1" connectable="0">
          <mxGeometry x="0.0339" y="-1" relative="1" as="geometry">
            <mxPoint as="offset" />
          </mxGeometry>
        </mxCell>
        <mxCell id="5kGYfxahbjPtnFIwZFcB-26" value="Hart[i]" style="text;html=1;align=center;verticalAlign=middle;whiteSpace=wrap;rounded=0;" parent="1" vertex="1">
          <mxGeometry x="470" y="310" width="60" height="30" as="geometry" />
        </mxCell>
        <mxCell id="5kGYfxahbjPtnFIwZFcB-27" style="edgeStyle=orthogonalEdgeStyle;rounded=0;orthogonalLoop=1;jettySize=auto;html=1;exitX=1;exitY=0.5;exitDx=0;exitDy=0;entryX=0;entryY=0.25;entryDx=0;entryDy=0;entryPerimeter=0;endArrow=none;endFill=0;" parent="1" source="5kGYfxahbjPtnFIwZFcB-12" target="5kGYfxahbjPtnFIwZFcB-11" edge="1">
          <mxGeometry relative="1" as="geometry">
            <Array as="points">
              <mxPoint x="630" y="379" />
              <mxPoint x="630" y="300" />
              <mxPoint x="285" y="300" />
              <mxPoint x="285" y="358" />
            </Array>
          </mxGeometry>
        </mxCell>
        <mxCell id="5kGYfxahbjPtnFIwZFcB-38" value="" style="group" parent="1" vertex="1" connectable="0">
          <mxGeometry x="355" y="334" width="57.5" height="90" as="geometry" />
        </mxCell>
        <mxCell id="5kGYfxahbjPtnFIwZFcB-35" value="" style="shape=trapezoid;perimeter=trapezoidPerimeter;whiteSpace=wrap;html=1;fixedSize=1;rotation=90;" parent="5kGYfxahbjPtnFIwZFcB-38" vertex="1">
          <mxGeometry x="-9.166666666666666" y="30" width="82.5" height="30" as="geometry" />
        </mxCell>
        <mxCell id="5kGYfxahbjPtnFIwZFcB-36" value="!M" style="text;html=1;align=center;verticalAlign=middle;whiteSpace=wrap;rounded=0;" parent="5kGYfxahbjPtnFIwZFcB-38" vertex="1">
          <mxGeometry x="-4.5" y="16" width="60" height="30" as="geometry" />
        </mxCell>
        <mxCell id="5kGYfxahbjPtnFIwZFcB-37" value="M" style="text;html=1;align=center;verticalAlign=middle;whiteSpace=wrap;rounded=0;" parent="5kGYfxahbjPtnFIwZFcB-38" vertex="1">
          <mxGeometry x="-4.5" y="49" width="60" height="30" as="geometry" />
        </mxCell>
        <mxCell id="5kGYfxahbjPtnFIwZFcB-40" style="edgeStyle=orthogonalEdgeStyle;rounded=0;orthogonalLoop=1;jettySize=auto;html=1;exitX=1;exitY=0.5;exitDx=0;exitDy=0;exitPerimeter=0;entryX=0.341;entryY=0.981;entryDx=0;entryDy=0;entryPerimeter=0;endArrow=none;endFill=0;" parent="1" source="5kGYfxahbjPtnFIwZFcB-11" target="5kGYfxahbjPtnFIwZFcB-35" edge="1">
          <mxGeometry relative="1" as="geometry" />
        </mxCell>
        <mxCell id="5kGYfxahbjPtnFIwZFcB-42" style="edgeStyle=orthogonalEdgeStyle;rounded=0;orthogonalLoop=1;jettySize=auto;html=1;entryX=0;entryY=0.75;entryDx=0;entryDy=0;entryPerimeter=0;endArrow=none;endFill=0;exitX=0.764;exitY=1.001;exitDx=0;exitDy=0;exitPerimeter=0;" parent="1" source="5kGYfxahbjPtnFIwZFcB-35" edge="1">
          <mxGeometry relative="1" as="geometry">
            <mxPoint x="302" y="372.5" as="targetPoint" />
            <mxPoint x="370" y="400" as="sourcePoint" />
            <Array as="points">
              <mxPoint x="372" y="402" />
              <mxPoint x="250" y="402" />
              <mxPoint x="250" y="373" />
            </Array>
          </mxGeometry>
        </mxCell>
        <mxCell id="5kGYfxahbjPtnFIwZFcB-52" value="mdbgen[i]" style="rounded=0;whiteSpace=wrap;html=1;" parent="1" vertex="1">
          <mxGeometry x="130" y="320" width="80" height="20" as="geometry" />
        </mxCell>
        <mxCell id="5kGYfxahbjPtnFIwZFcB-53" value="" style="rounded=0;whiteSpace=wrap;html=1;" parent="1" vertex="1">
          <mxGeometry x="130" y="300" width="80" height="20" as="geometry" />
        </mxCell>
        <mxCell id="5kGYfxahbjPtnFIwZFcB-54" value="" style="rounded=0;whiteSpace=wrap;html=1;" parent="1" vertex="1">
          <mxGeometry x="130" y="340" width="80" height="20" as="geometry" />
        </mxCell>
        <mxCell id="7-t_SaUqh4x_xhmtyNzG-1" style="edgeStyle=orthogonalEdgeStyle;rounded=0;orthogonalLoop=1;jettySize=auto;html=1;exitX=1;exitY=0.25;exitDx=0;exitDy=0;endArrow=none;endFill=0;startArrow=classic;startFill=1;" parent="1" edge="1">
          <mxGeometry relative="1" as="geometry">
            <mxPoint x="630" y="379" as="targetPoint" />
            <mxPoint x="703.1857657657657" y="486.12837837837833" as="sourcePoint" />
            <Array as="points">
              <mxPoint x="703" y="379" />
            </Array>
          </mxGeometry>
        </mxCell>
        <mxCell id="7-t_SaUqh4x_xhmtyNzG-2" style="edgeStyle=orthogonalEdgeStyle;rounded=0;orthogonalLoop=1;jettySize=auto;html=1;exitX=1;exitY=0.75;exitDx=0;exitDy=0;endArrow=none;endFill=0;startArrow=classic;startFill=1;" parent="1" edge="1">
          <mxGeometry relative="1" as="geometry">
            <mxPoint x="249.88888888888889" y="330" as="targetPoint" />
            <mxPoint x="715.7188505747126" y="479.43965517241384" as="sourcePoint" />
            <Array as="points">
              <mxPoint x="716" y="280" />
              <mxPoint x="250" y="280" />
            </Array>
          </mxGeometry>
        </mxCell>
        <mxCell id="7-t_SaUqh4x_xhmtyNzG-3" style="edgeStyle=orthogonalEdgeStyle;rounded=0;orthogonalLoop=1;jettySize=auto;html=1;entryX=1;entryY=0.5;entryDx=0;entryDy=0;" parent="1" source="5kGYfxahbjPtnFIwZFcB-57" target="5kGYfxahbjPtnFIwZFcB-18" edge="1">
          <mxGeometry relative="1" as="geometry" />
        </mxCell>
        <mxCell id="7-t_SaUqh4x_xhmtyNzG-4" value="etrigger input" style="edgeLabel;html=1;align=center;verticalAlign=middle;resizable=0;points=[];" parent="7-t_SaUqh4x_xhmtyNzG-3" vertex="1" connectable="0">
          <mxGeometry x="0.1159" relative="1" as="geometry">
            <mxPoint x="10" as="offset" />
          </mxGeometry>
        </mxCell>
        <mxCell id="5kGYfxahbjPtnFIwZFcB-57" value="" style="shape=trapezoid;perimeter=trapezoidPerimeter;whiteSpace=wrap;html=1;fixedSize=1;rotation=-90;" parent="1" vertex="1">
          <mxGeometry x="667.0033333333333" y="485" width="82.5" height="30" as="geometry" />
        </mxCell>
        <mxCell id="7-t_SaUqh4x_xhmtyNzG-5" value="" style="endArrow=classic;html=1;rounded=0;entryX=0.5;entryY=1;entryDx=0;entryDy=0;" parent="1" target="5kGYfxahbjPtnFIwZFcB-57" edge="1">
          <mxGeometry width="50" height="50" relative="1" as="geometry">
            <mxPoint x="820" y="500" as="sourcePoint" />
            <mxPoint x="470" y="380" as="targetPoint" />
          </mxGeometry>
        </mxCell>
        <mxCell id="7-t_SaUqh4x_xhmtyNzG-6" value="etrigger input" style="edgeLabel;html=1;align=center;verticalAlign=middle;resizable=0;points=[];" parent="7-t_SaUqh4x_xhmtyNzG-5" vertex="1" connectable="0">
          <mxGeometry x="0.4057" relative="1" as="geometry">
            <mxPoint x="22" as="offset" />
          </mxGeometry>
        </mxCell>
      </root>
    </mxGraphModel>
  </diagram>
  <diagram id="UIlxzOZdtFUtSLtemyhW" name="Page-3">
    <mxGraphModel dx="1114" dy="846" grid="1" gridSize="10" guides="1" tooltips="1" connect="1" arrows="1" fold="1" page="1" pageScale="1" pageWidth="850" pageHeight="1100" math="0" shadow="0">
      <root>
        <mxCell id="0" />
        <mxCell id="1" parent="0" />
        <mxCell id="PZXsd9hmSBtfDxLOXdQ2-1" value="" style="rounded=1;whiteSpace=wrap;html=1;dashed=1;fillColor=#f5f5f5;fontColor=#333333;strokeColor=#666666;" parent="1" vertex="1">
          <mxGeometry x="229" y="256" width="230" height="264" as="geometry" />
        </mxCell>
        <mxCell id="UDCp61fQdgIPTz9MCS0r-1" value="" style="rounded=0;whiteSpace=wrap;html=1;" parent="1" vertex="1">
          <mxGeometry x="490" y="330" width="120" height="235" as="geometry" />
        </mxCell>
        <mxCell id="UDCp61fQdgIPTz9MCS0r-2" value="" style="rounded=0;whiteSpace=wrap;html=1;" parent="1" vertex="1">
          <mxGeometry x="480" y="320" width="120" height="235" as="geometry" />
        </mxCell>
        <mxCell id="UDCp61fQdgIPTz9MCS0r-5" value="Trace encoder[i]" style="rounded=0;whiteSpace=wrap;html=1;" parent="1" vertex="1">
          <mxGeometry x="130" y="380" width="80" height="130" as="geometry" />
        </mxCell>
        <mxCell id="UDCp61fQdgIPTz9MCS0r-6" value="" style="rounded=0;whiteSpace=wrap;html=1;" parent="1" vertex="1">
          <mxGeometry x="470" y="310" width="120" height="235" as="geometry" />
        </mxCell>
        <mxCell id="UDCp61fQdgIPTz9MCS0r-12" style="edgeStyle=orthogonalEdgeStyle;rounded=0;orthogonalLoop=1;jettySize=auto;html=1;exitX=0;exitY=0.75;exitDx=0;exitDy=0;exitPerimeter=0;endArrow=none;endFill=0;" parent="1" source="UDCp61fQdgIPTz9MCS0r-13" target="UDCp61fQdgIPTz9MCS0r-15" edge="1">
          <mxGeometry relative="1" as="geometry">
            <mxPoint x="280" y="430" as="targetPoint" />
            <Array as="points">
              <mxPoint x="250" y="373" />
              <mxPoint x="250" y="330" />
            </Array>
          </mxGeometry>
        </mxCell>
        <mxCell id="UDCp61fQdgIPTz9MCS0r-13" value="" style="verticalLabelPosition=bottom;shadow=0;dashed=0;align=center;html=1;verticalAlign=top;shape=mxgraph.electrical.logic_gates.logic_gate;operation=or;" parent="1" vertex="1">
          <mxGeometry x="305" y="350" width="50" height="30" as="geometry" />
        </mxCell>
        <mxCell id="UDCp61fQdgIPTz9MCS0r-14" value="strcen" style="rounded=0;whiteSpace=wrap;html=1;" parent="1" vertex="1">
          <mxGeometry x="482.5" y="369" width="95" height="20" as="geometry" />
        </mxCell>
        <mxCell id="UDCp61fQdgIPTz9MCS0r-15" value="" style="rounded=0;whiteSpace=wrap;html=1;" parent="1" vertex="1">
          <mxGeometry x="130" y="300" width="80" height="60" as="geometry" />
        </mxCell>
        <mxCell id="UDCp61fQdgIPTz9MCS0r-19" style="edgeStyle=orthogonalEdgeStyle;rounded=0;orthogonalLoop=1;jettySize=auto;html=1;entryX=0.5;entryY=0;entryDx=0;entryDy=0;startArrow=none;startFill=0;endArrow=none;endFill=0;exitX=0;exitY=0.75;exitDx=0;exitDy=0;exitPerimeter=0;" parent="1" source="UDCp61fQdgIPTz9MCS0r-21" target="UDCp61fQdgIPTz9MCS0r-30" edge="1">
          <mxGeometry relative="1" as="geometry">
            <Array as="points">
              <mxPoint x="430" y="440" />
              <mxPoint x="430" y="379" />
            </Array>
            <mxPoint x="300" y="430" as="sourcePoint" />
          </mxGeometry>
        </mxCell>
        <mxCell id="UDCp61fQdgIPTz9MCS0r-20" value="trcen[i]" style="edgeLabel;html=1;align=center;verticalAlign=middle;resizable=0;points=[];" parent="UDCp61fQdgIPTz9MCS0r-19" vertex="1" connectable="0">
          <mxGeometry x="-0.0596" y="-1" relative="1" as="geometry">
            <mxPoint x="-6" y="-7" as="offset" />
          </mxGeometry>
        </mxCell>
        <mxCell id="UDCp61fQdgIPTz9MCS0r-21" value="" style="shape=or;whiteSpace=wrap;html=1;rotation=-180;" parent="1" vertex="1">
          <mxGeometry x="340" y="430" width="30" height="40" as="geometry" />
        </mxCell>
        <mxCell id="UDCp61fQdgIPTz9MCS0r-25" style="edgeStyle=orthogonalEdgeStyle;rounded=0;orthogonalLoop=1;jettySize=auto;html=1;exitX=0;exitY=0.25;exitDx=0;exitDy=0;entryX=0;entryY=0.5;entryDx=0;entryDy=0;" parent="1" source="UDCp61fQdgIPTz9MCS0r-27" target="UDCp61fQdgIPTz9MCS0r-30" edge="1">
          <mxGeometry relative="1" as="geometry">
            <Array as="points">
              <mxPoint x="470" y="330" />
              <mxPoint x="387" y="330" />
            </Array>
          </mxGeometry>
        </mxCell>
        <mxCell id="UDCp61fQdgIPTz9MCS0r-26" value="privilege[i]" style="edgeLabel;html=1;align=center;verticalAlign=middle;resizable=0;points=[];" parent="UDCp61fQdgIPTz9MCS0r-25" vertex="1" connectable="0">
          <mxGeometry x="0.0339" y="-1" relative="1" as="geometry">
            <mxPoint as="offset" />
          </mxGeometry>
        </mxCell>
        <mxCell id="UDCp61fQdgIPTz9MCS0r-27" value="Hart[i]" style="text;html=1;align=center;verticalAlign=middle;whiteSpace=wrap;rounded=0;" parent="1" vertex="1">
          <mxGeometry x="470" y="310" width="60" height="30" as="geometry" />
        </mxCell>
        <mxCell id="UDCp61fQdgIPTz9MCS0r-28" style="edgeStyle=orthogonalEdgeStyle;rounded=0;orthogonalLoop=1;jettySize=auto;html=1;exitX=1;exitY=0.5;exitDx=0;exitDy=0;entryX=0;entryY=0.25;entryDx=0;entryDy=0;entryPerimeter=0;endArrow=none;endFill=0;" parent="1" source="UDCp61fQdgIPTz9MCS0r-14" target="UDCp61fQdgIPTz9MCS0r-13" edge="1">
          <mxGeometry relative="1" as="geometry">
            <Array as="points">
              <mxPoint x="630" y="379" />
              <mxPoint x="630" y="300" />
              <mxPoint x="285" y="300" />
              <mxPoint x="285" y="358" />
            </Array>
          </mxGeometry>
        </mxCell>
        <mxCell id="UDCp61fQdgIPTz9MCS0r-29" value="" style="group" parent="1" vertex="1" connectable="0">
          <mxGeometry x="355" y="334" width="57.5" height="90" as="geometry" />
        </mxCell>
        <mxCell id="UDCp61fQdgIPTz9MCS0r-30" value="" style="shape=trapezoid;perimeter=trapezoidPerimeter;whiteSpace=wrap;html=1;fixedSize=1;rotation=90;" parent="UDCp61fQdgIPTz9MCS0r-29" vertex="1">
          <mxGeometry x="-9.166666666666666" y="30" width="82.5" height="30" as="geometry" />
        </mxCell>
        <mxCell id="UDCp61fQdgIPTz9MCS0r-31" value="!M" style="text;html=1;align=center;verticalAlign=middle;whiteSpace=wrap;rounded=0;" parent="UDCp61fQdgIPTz9MCS0r-29" vertex="1">
          <mxGeometry x="-4.5" y="16" width="60" height="30" as="geometry" />
        </mxCell>
        <mxCell id="UDCp61fQdgIPTz9MCS0r-32" value="M" style="text;html=1;align=center;verticalAlign=middle;whiteSpace=wrap;rounded=0;" parent="UDCp61fQdgIPTz9MCS0r-29" vertex="1">
          <mxGeometry x="-4.5" y="49" width="60" height="30" as="geometry" />
        </mxCell>
        <mxCell id="UDCp61fQdgIPTz9MCS0r-33" style="edgeStyle=orthogonalEdgeStyle;rounded=0;orthogonalLoop=1;jettySize=auto;html=1;exitX=1;exitY=0.5;exitDx=0;exitDy=0;exitPerimeter=0;entryX=0.341;entryY=0.981;entryDx=0;entryDy=0;entryPerimeter=0;endArrow=none;endFill=0;" parent="1" source="UDCp61fQdgIPTz9MCS0r-13" target="UDCp61fQdgIPTz9MCS0r-30" edge="1">
          <mxGeometry relative="1" as="geometry" />
        </mxCell>
        <mxCell id="UDCp61fQdgIPTz9MCS0r-34" style="edgeStyle=orthogonalEdgeStyle;rounded=0;orthogonalLoop=1;jettySize=auto;html=1;entryX=0;entryY=0.75;entryDx=0;entryDy=0;entryPerimeter=0;endArrow=none;endFill=0;exitX=0.764;exitY=1.001;exitDx=0;exitDy=0;exitPerimeter=0;" parent="1" source="UDCp61fQdgIPTz9MCS0r-30" edge="1">
          <mxGeometry relative="1" as="geometry">
            <mxPoint x="302" y="372.5" as="targetPoint" />
            <mxPoint x="370" y="400" as="sourcePoint" />
            <Array as="points">
              <mxPoint x="372" y="402" />
              <mxPoint x="250" y="402" />
              <mxPoint x="250" y="373" />
            </Array>
          </mxGeometry>
        </mxCell>
        <mxCell id="UDCp61fQdgIPTz9MCS0r-35" value="mtrcen[i]" style="rounded=0;whiteSpace=wrap;html=1;" parent="1" vertex="1">
          <mxGeometry x="130" y="320" width="80" height="20" as="geometry" />
        </mxCell>
        <mxCell id="UDCp61fQdgIPTz9MCS0r-36" value="" style="rounded=0;whiteSpace=wrap;html=1;" parent="1" vertex="1">
          <mxGeometry x="130" y="300" width="80" height="20" as="geometry" />
        </mxCell>
        <mxCell id="UDCp61fQdgIPTz9MCS0r-37" value="" style="rounded=0;whiteSpace=wrap;html=1;" parent="1" vertex="1">
          <mxGeometry x="130" y="340" width="80" height="20" as="geometry" />
        </mxCell>
        <mxCell id="GbtCg3jwWPSh3iAjcVzU-2" style="edgeStyle=orthogonalEdgeStyle;rounded=0;orthogonalLoop=1;jettySize=auto;html=1;exitX=0;exitY=0.25;exitDx=0;exitDy=0;exitPerimeter=0;endArrow=none;endFill=0;entryX=0;entryY=0.5;entryDx=0;entryDy=0;" parent="1" source="UDCp61fQdgIPTz9MCS0r-21" target="GbtCg3jwWPSh3iAjcVzU-50" edge="1">
          <mxGeometry relative="1" as="geometry">
            <mxPoint x="470" y="460" as="targetPoint" />
          </mxGeometry>
        </mxCell>
        <mxCell id="GbtCg3jwWPSh3iAjcVzU-3" style="edgeStyle=orthogonalEdgeStyle;rounded=0;orthogonalLoop=1;jettySize=auto;html=1;exitX=1;exitY=0.5;exitDx=0;exitDy=0;exitPerimeter=0;entryX=1.019;entryY=0.546;entryDx=0;entryDy=0;entryPerimeter=0;" parent="1" source="UDCp61fQdgIPTz9MCS0r-21" target="UDCp61fQdgIPTz9MCS0r-5" edge="1">
          <mxGeometry relative="1" as="geometry" />
        </mxCell>
        <mxCell id="GbtCg3jwWPSh3iAjcVzU-4" value="! halted" style="edgeLabel;html=1;align=center;verticalAlign=middle;resizable=0;points=[];" parent="GbtCg3jwWPSh3iAjcVzU-3" vertex="1" connectable="0">
          <mxGeometry x="0.0728" relative="1" as="geometry">
            <mxPoint as="offset" />
          </mxGeometry>
        </mxCell>
        <mxCell id="GbtCg3jwWPSh3iAjcVzU-50" value="Trace egress" style="rounded=0;whiteSpace=wrap;html=1;" parent="1" vertex="1">
          <mxGeometry x="482.5" y="450" width="95" height="20" as="geometry" />
        </mxCell>
      </root>
    </mxGraphModel>
  </diagram>
</mxfile>
